<mxfile host="Electron" agent="Mozilla/5.0 (Windows NT 10.0; Win64; x64) AppleWebKit/537.36 (KHTML, like Gecko) draw.io/26.0.9 Chrome/128.0.6613.186 Electron/32.2.5 Safari/537.36" version="26.0.9">
  <diagram name="Page-1" id="E-_QgPCR_2IB9xLFexC5">
    <mxGraphModel dx="794" dy="511" grid="1" gridSize="10" guides="1" tooltips="1" connect="1" arrows="1" fold="1" page="1" pageScale="1" pageWidth="850" pageHeight="1100" math="0" shadow="0">
      <root>
        <mxCell id="0" />
        <mxCell id="1" parent="0" />
        <mxCell id="Kal2rjh7drkBnL2k9T2B-1" value="" style="rounded=0;whiteSpace=wrap;html=1;fillColor=none;dashed=1;strokeColor=#6c8ebf;dashPattern=1 1;" vertex="1" parent="1">
          <mxGeometry x="30" y="100" width="120" height="430" as="geometry" />
        </mxCell>
        <mxCell id="Kal2rjh7drkBnL2k9T2B-2" value="&lt;font style=&quot;font-size: 19px;&quot;&gt;Souces&lt;/font&gt;" style="rounded=0;whiteSpace=wrap;html=1;strokeColor=none;" vertex="1" parent="1">
          <mxGeometry x="40" y="90" width="100" height="30" as="geometry" />
        </mxCell>
        <mxCell id="Kal2rjh7drkBnL2k9T2B-3" value="" style="whiteSpace=wrap;html=1;aspect=fixed;fillColor=none;dashed=1;dashPattern=1 1;strokeColor=#9999FF;" vertex="1" parent="1">
          <mxGeometry x="192" y="100" width="429" height="429" as="geometry" />
        </mxCell>
        <mxCell id="Kal2rjh7drkBnL2k9T2B-4" value="&lt;font style=&quot;font-size: 18px;&quot;&gt;Data Warehouse&lt;/font&gt;" style="rounded=0;whiteSpace=wrap;html=1;strokeColor=none;fillColor=default;" vertex="1" parent="1">
          <mxGeometry x="290" y="90" width="170" height="30" as="geometry" />
        </mxCell>
        <mxCell id="Kal2rjh7drkBnL2k9T2B-5" value="" style="rounded=0;whiteSpace=wrap;html=1;fillColor=none;dashed=1;strokeColor=#6c8ebf;dashPattern=1 1;" vertex="1" parent="1">
          <mxGeometry x="654" y="101" width="120" height="429" as="geometry" />
        </mxCell>
        <mxCell id="Kal2rjh7drkBnL2k9T2B-6" value="&lt;font style=&quot;font-size: 19px;&quot;&gt;Consume&lt;/font&gt;" style="rounded=0;whiteSpace=wrap;html=1;strokeColor=none;" vertex="1" parent="1">
          <mxGeometry x="665" y="80" width="100" height="30" as="geometry" />
        </mxCell>
        <mxCell id="Kal2rjh7drkBnL2k9T2B-8" value="Bronze Layer" style="rounded=0;whiteSpace=wrap;html=1;fillColor=#ffe6cc;strokeColor=#d79b00;" vertex="1" parent="1">
          <mxGeometry x="214" y="140" width="110" height="30" as="geometry" />
        </mxCell>
        <mxCell id="Kal2rjh7drkBnL2k9T2B-9" value="" style="rounded=0;whiteSpace=wrap;html=1;fillColor=none;strokeColor=#d79b00;" vertex="1" parent="1">
          <mxGeometry x="214" y="174" width="110" height="326" as="geometry" />
        </mxCell>
        <mxCell id="Kal2rjh7drkBnL2k9T2B-10" value="Silver Layer" style="rounded=0;whiteSpace=wrap;html=1;fillColor=#f5f5f5;strokeColor=#666666;fontColor=#333333;" vertex="1" parent="1">
          <mxGeometry x="352" y="141" width="110" height="30" as="geometry" />
        </mxCell>
        <mxCell id="Kal2rjh7drkBnL2k9T2B-11" value="" style="rounded=0;whiteSpace=wrap;html=1;fillColor=none;strokeColor=#666666;fontColor=#333333;" vertex="1" parent="1">
          <mxGeometry x="352" y="174" width="110" height="326" as="geometry" />
        </mxCell>
        <mxCell id="Kal2rjh7drkBnL2k9T2B-13" value="Gold Layer" style="rounded=0;whiteSpace=wrap;html=1;fillColor=#fff2cc;strokeColor=#d6b656;" vertex="1" parent="1">
          <mxGeometry x="490" y="140" width="110" height="30" as="geometry" />
        </mxCell>
        <mxCell id="Kal2rjh7drkBnL2k9T2B-14" value="" style="rounded=0;whiteSpace=wrap;html=1;fillColor=none;strokeColor=#d6b656;" vertex="1" parent="1">
          <mxGeometry x="490" y="174" width="110" height="326" as="geometry" />
        </mxCell>
        <mxCell id="Kal2rjh7drkBnL2k9T2B-15" value="&lt;b&gt;CRM&lt;/b&gt;" style="image;aspect=fixed;html=1;points=[];align=center;fontSize=12;image=img/lib/azure2/general/Folder_Blank.svg;" vertex="1" parent="1">
          <mxGeometry x="61" y="164" width="55" height="44.64" as="geometry" />
        </mxCell>
        <mxCell id="Kal2rjh7drkBnL2k9T2B-16" value="" style="image;aspect=fixed;html=1;points=[];align=center;fontSize=12;image=img/lib/azure2/general/Files.svg;" vertex="1" parent="1">
          <mxGeometry x="90" y="182" width="30.17" height="33" as="geometry" />
        </mxCell>
        <mxCell id="Kal2rjh7drkBnL2k9T2B-17" value="ERP" style="image;aspect=fixed;html=1;points=[];align=center;fontSize=12;image=img/lib/azure2/general/Folder_Blank.svg;fontStyle=1" vertex="1" parent="1">
          <mxGeometry x="60" y="282" width="55" height="45.64" as="geometry" />
        </mxCell>
        <mxCell id="Kal2rjh7drkBnL2k9T2B-18" value="" style="image;aspect=fixed;html=1;points=[];align=center;fontSize=12;image=img/lib/azure2/general/Files.svg;" vertex="1" parent="1">
          <mxGeometry x="93" y="301" width="30.17" height="34" as="geometry" />
        </mxCell>
        <mxCell id="Kal2rjh7drkBnL2k9T2B-19" value="&lt;b&gt;Objective Type: &lt;/b&gt;CSV Files&lt;br&gt;&lt;b&gt;Interface:&lt;/b&gt; Files in Folder" style="text;html=1;align=left;verticalAlign=middle;whiteSpace=wrap;rounded=0;fontSize=9;" vertex="1" parent="1">
          <mxGeometry x="36" y="440" width="107" height="60" as="geometry" />
        </mxCell>
        <mxCell id="Kal2rjh7drkBnL2k9T2B-21" value="" style="html=1;verticalLabelPosition=bottom;align=center;labelBackgroundColor=#ffffff;verticalAlign=top;strokeWidth=2;strokeColor=#d79b00;shadow=0;dashed=0;shape=mxgraph.ios7.icons.data;fillColor=#ffe6cc;" vertex="1" parent="1">
          <mxGeometry x="249" y="190" width="40" height="44" as="geometry" />
        </mxCell>
        <mxCell id="Kal2rjh7drkBnL2k9T2B-22" value="" style="html=1;verticalLabelPosition=bottom;align=center;labelBackgroundColor=#ffffff;verticalAlign=top;strokeWidth=2;strokeColor=#666666;shadow=0;dashed=0;shape=mxgraph.ios7.icons.data;fillColor=#f5f5f5;fontColor=#333333;" vertex="1" parent="1">
          <mxGeometry x="387" y="190" width="40" height="44" as="geometry" />
        </mxCell>
        <mxCell id="Kal2rjh7drkBnL2k9T2B-23" value="" style="html=1;verticalLabelPosition=bottom;align=center;labelBackgroundColor=#ffffff;verticalAlign=top;strokeWidth=2;strokeColor=#d6b656;shadow=0;dashed=0;shape=mxgraph.ios7.icons.data;fillColor=#fff2cc;" vertex="1" parent="1">
          <mxGeometry x="527" y="190" width="40" height="44" as="geometry" />
        </mxCell>
        <mxCell id="Kal2rjh7drkBnL2k9T2B-24" value="" style="shape=singleArrow;whiteSpace=wrap;html=1;fillColor=#dae8fc;strokeColor=#6c8ebf;" vertex="1" parent="1">
          <mxGeometry x="150" y="278" width="42" height="22" as="geometry" />
        </mxCell>
        <mxCell id="Kal2rjh7drkBnL2k9T2B-28" value="" style="shape=singleArrow;whiteSpace=wrap;html=1;fillColor=#dae8fc;strokeColor=#6c8ebf;" vertex="1" parent="1">
          <mxGeometry x="320" y="278" width="30" height="22" as="geometry" />
        </mxCell>
        <mxCell id="Kal2rjh7drkBnL2k9T2B-31" value="" style="shape=singleArrow;whiteSpace=wrap;html=1;fillColor=#dae8fc;strokeColor=#6c8ebf;" vertex="1" parent="1">
          <mxGeometry x="459" y="278" width="43" height="22" as="geometry" />
        </mxCell>
        <mxCell id="Kal2rjh7drkBnL2k9T2B-32" value="" style="shape=singleArrow;whiteSpace=wrap;html=1;fillColor=#dae8fc;strokeColor=#6c8ebf;" vertex="1" parent="1">
          <mxGeometry x="618" y="278" width="43" height="22" as="geometry" />
        </mxCell>
        <mxCell id="Kal2rjh7drkBnL2k9T2B-35" value="Raw Data" style="text;html=1;align=center;verticalAlign=middle;whiteSpace=wrap;rounded=0;fontSize=9;fontStyle=1" vertex="1" parent="1">
          <mxGeometry x="239" y="228" width="60" height="30" as="geometry" />
        </mxCell>
        <mxCell id="Kal2rjh7drkBnL2k9T2B-36" value="Cleaned Standardized Data" style="text;html=1;align=center;verticalAlign=middle;whiteSpace=wrap;rounded=0;fontSize=9;fontStyle=1" vertex="1" parent="1">
          <mxGeometry x="362" y="231" width="90" height="30" as="geometry" />
        </mxCell>
        <mxCell id="Kal2rjh7drkBnL2k9T2B-37" value="Business Ready Data" style="text;html=1;align=center;verticalAlign=middle;whiteSpace=wrap;rounded=0;fontSize=9;fontStyle=1" vertex="1" parent="1">
          <mxGeometry x="500" y="232" width="90" height="30" as="geometry" />
        </mxCell>
        <mxCell id="Kal2rjh7drkBnL2k9T2B-40" value="" style="line;strokeWidth=1;html=1;fontSize=1;fillColor=#ffe6cc;strokeColor=#d79b00;" vertex="1" parent="1">
          <mxGeometry x="219" y="255" width="100" height="10" as="geometry" />
        </mxCell>
        <mxCell id="Kal2rjh7drkBnL2k9T2B-42" value="" style="line;strokeWidth=1;html=1;fontSize=1;fillColor=#f5f5f5;strokeColor=#666666;fontColor=#333333;" vertex="1" parent="1">
          <mxGeometry x="359" y="258" width="100" height="10" as="geometry" />
        </mxCell>
        <mxCell id="Kal2rjh7drkBnL2k9T2B-43" value="" style="line;strokeWidth=1;html=1;fontSize=1;fillColor=#fff2cc;strokeColor=#d6b656;" vertex="1" parent="1">
          <mxGeometry x="495" y="258" width="100" height="10" as="geometry" />
        </mxCell>
        <mxCell id="Kal2rjh7drkBnL2k9T2B-44" value="&lt;div style=&quot;&quot;&gt;&lt;font style=&quot;font-size: 8px;&quot;&gt;&lt;b style=&quot;background-color: transparent; color: light-dark(rgb(0, 0, 0), rgb(255, 255, 255));&quot;&gt;Object Type: &lt;/b&gt;&lt;span style=&quot;background-color: transparent; color: light-dark(rgb(0, 0, 0), rgb(255, 255, 255));&quot;&gt;Tables&lt;/span&gt;&lt;/font&gt;&lt;/div&gt;&lt;b&gt;&lt;div style=&quot;&quot;&gt;&lt;b style=&quot;background-color: transparent; color: light-dark(rgb(0, 0, 0), rgb(255, 255, 255));&quot;&gt;&lt;font style=&quot;font-size: 8px;&quot;&gt;Load:&lt;/font&gt;&lt;/b&gt;&lt;/div&gt;&lt;/b&gt;&lt;div&gt;&lt;ul&gt;&lt;li style=&quot;&quot;&gt;&lt;font style=&quot;font-size: 8px;&quot;&gt;Batch processing&amp;nbsp;&lt;/font&gt;&lt;/li&gt;&lt;li style=&quot;&quot;&gt;&lt;font style=&quot;font-size: 8px;&quot;&gt;Full load&lt;/font&gt;&lt;/li&gt;&lt;li style=&quot;&quot;&gt;&lt;font style=&quot;font-size: 8px;&quot;&gt;Truncate &amp;amp; Insert&lt;/font&gt;&lt;br&gt;&lt;/li&gt;&lt;/ul&gt;&lt;div&gt;&lt;span style=&quot;font-size: 8px;&quot;&gt;&lt;b&gt;No Tranformations&lt;/b&gt;&lt;/span&gt;&lt;/div&gt;&lt;/div&gt;&lt;div&gt;&lt;span style=&quot;font-size: 8px;&quot;&gt;&lt;b&gt;Data Modelling: &lt;/b&gt;None&lt;/span&gt;&lt;/div&gt;" style="text;html=1;align=left;verticalAlign=top;whiteSpace=wrap;rounded=0;labelPosition=center;verticalLabelPosition=middle;" vertex="1" parent="1">
          <mxGeometry x="219" y="278" width="101" height="195" as="geometry" />
        </mxCell>
        <mxCell id="Kal2rjh7drkBnL2k9T2B-45" value="&lt;div style=&quot;&quot;&gt;&lt;font style=&quot;font-size: 8px;&quot;&gt;&lt;b style=&quot;background-color: transparent; color: light-dark(rgb(0, 0, 0), rgb(255, 255, 255));&quot;&gt;Object Type: &lt;/b&gt;&lt;span style=&quot;background-color: transparent; color: light-dark(rgb(0, 0, 0), rgb(255, 255, 255));&quot;&gt;Tables&lt;/span&gt;&lt;/font&gt;&lt;/div&gt;&lt;b&gt;&lt;div style=&quot;&quot;&gt;&lt;b style=&quot;background-color: transparent; color: light-dark(rgb(0, 0, 0), rgb(255, 255, 255));&quot;&gt;&lt;font style=&quot;font-size: 8px;&quot;&gt;Load:&lt;/font&gt;&lt;/b&gt;&lt;/div&gt;&lt;/b&gt;&lt;div&gt;&lt;ul&gt;&lt;li style=&quot;&quot;&gt;&lt;font style=&quot;font-size: 8px;&quot;&gt;Batch processing&amp;nbsp;&lt;/font&gt;&lt;/li&gt;&lt;li style=&quot;&quot;&gt;&lt;font style=&quot;font-size: 8px;&quot;&gt;Full load&lt;/font&gt;&lt;/li&gt;&lt;li style=&quot;&quot;&gt;&lt;font style=&quot;font-size: 8px;&quot;&gt;Truncate &amp;amp; Insert&lt;/font&gt;&lt;br&gt;&lt;/li&gt;&lt;/ul&gt;&lt;div&gt;&lt;span style=&quot;font-size: 8px;&quot;&gt;&lt;b&gt;Tranformations:&lt;/b&gt;&lt;/span&gt;&lt;/div&gt;&lt;/div&gt;&lt;div&gt;&lt;ul&gt;&lt;li&gt;&lt;span style=&quot;font-size: 8px;&quot;&gt;Cleansing&lt;/span&gt;&lt;/li&gt;&lt;li&gt;&lt;span style=&quot;font-size: 8px;&quot;&gt;Standardization&lt;/span&gt;&lt;/li&gt;&lt;li&gt;&lt;span style=&quot;font-size: 8px;&quot;&gt;Normalization&lt;/span&gt;&lt;/li&gt;&lt;li&gt;&lt;span style=&quot;font-size: 8px;&quot;&gt;data enrich ment&lt;/span&gt;&lt;/li&gt;&lt;li&gt;&lt;span style=&quot;font-size: 8px;&quot;&gt;derived columns&lt;/span&gt;&lt;/li&gt;&lt;/ul&gt;&lt;/div&gt;&lt;div&gt;&lt;span style=&quot;font-size: 8px;&quot;&gt;&lt;b&gt;Data Modelling: &lt;/b&gt;None&lt;/span&gt;&lt;/div&gt;" style="text;html=1;align=left;verticalAlign=middle;whiteSpace=wrap;rounded=0;labelPosition=center;verticalLabelPosition=middle;textDirection=ltr;spacing=0;spacingTop=1;" vertex="1" parent="1">
          <mxGeometry x="358" y="281" width="100" height="195" as="geometry" />
        </mxCell>
        <mxCell id="Kal2rjh7drkBnL2k9T2B-46" value="&lt;div style=&quot;&quot;&gt;&lt;font style=&quot;font-size: 8px;&quot;&gt;&lt;b style=&quot;background-color: transparent; color: light-dark(rgb(0, 0, 0), rgb(255, 255, 255));&quot;&gt;Object Type: &lt;/b&gt;&lt;span style=&quot;background-color: transparent; color: light-dark(rgb(0, 0, 0), rgb(255, 255, 255));&quot;&gt;Views&lt;/span&gt;&lt;/font&gt;&lt;/div&gt;&lt;b&gt;&lt;div style=&quot;&quot;&gt;&lt;b style=&quot;background-color: transparent; color: light-dark(rgb(0, 0, 0), rgb(255, 255, 255));&quot;&gt;&lt;font style=&quot;font-size: 8px;&quot;&gt;No Load&lt;/font&gt;&lt;/b&gt;&lt;/div&gt;&lt;/b&gt;&lt;div&gt;&lt;div&gt;&lt;span style=&quot;font-size: 8px;&quot;&gt;&lt;b&gt;Tranformations:&lt;/b&gt;&lt;/span&gt;&lt;/div&gt;&lt;/div&gt;&lt;div&gt;&lt;ul&gt;&lt;li&gt;&lt;span style=&quot;font-size: 8px;&quot;&gt;Dt Integration&lt;/span&gt;&lt;/li&gt;&lt;li&gt;&lt;span style=&quot;font-size: 8px;&quot;&gt;Aggregation&lt;/span&gt;&lt;/li&gt;&lt;li&gt;&lt;span style=&quot;font-size: 8px;&quot;&gt;Business logics&lt;/span&gt;&lt;/li&gt;&lt;/ul&gt;&lt;/div&gt;&lt;div&gt;&lt;span style=&quot;font-size: 8px;&quot;&gt;&lt;b&gt;Data Modelling:&amp;nbsp;&lt;/b&gt;&lt;/span&gt;&lt;/div&gt;&lt;div&gt;&lt;ul&gt;&lt;li&gt;&lt;span style=&quot;font-size: 8px;&quot;&gt;Star Schema&amp;nbsp;&lt;/span&gt;&lt;/li&gt;&lt;li&gt;&lt;span style=&quot;font-size: 8px;&quot;&gt;Flat Table&amp;nbsp;&lt;/span&gt;&lt;/li&gt;&lt;li&gt;&lt;span style=&quot;font-size: 8px;&quot;&gt;Aggregated Table&lt;/span&gt;&lt;/li&gt;&lt;/ul&gt;&lt;/div&gt;" style="text;html=1;align=left;verticalAlign=top;whiteSpace=wrap;rounded=0;labelPosition=center;verticalLabelPosition=middle;" vertex="1" parent="1">
          <mxGeometry x="499" y="284" width="95" height="195" as="geometry" />
        </mxCell>
        <mxCell id="Kal2rjh7drkBnL2k9T2B-47" value="BI and Reporting" style="image;aspect=fixed;html=1;points=[];align=left;fontSize=12;image=img/lib/azure2/analytics/Power_BI_Embedded.svg;" vertex="1" parent="1">
          <mxGeometry x="665" y="182" width="34.5" height="46" as="geometry" />
        </mxCell>
        <mxCell id="Kal2rjh7drkBnL2k9T2B-48" value="" style="verticalLabelPosition=bottom;sketch=0;aspect=fixed;html=1;verticalAlign=top;strokeColor=none;align=center;outlineConnect=0;shape=mxgraph.citrix.reporting;rotation=0;" vertex="1" parent="1">
          <mxGeometry x="709" y="185" width="35.65" height="40" as="geometry" />
        </mxCell>
        <mxCell id="Kal2rjh7drkBnL2k9T2B-50" value="Machine Learning" style="editableCssRules=.*;html=1;shape=image;verticalLabelPosition=bottom;labelBackgroundColor=#ffffff;verticalAlign=top;aspect=fixed;imageAspect=0;image=data:image/svg+xml,PHN2ZyB4bWxucz0iaHR0cDovL3d3dy53My5vcmcvMjAwMC9zdmciIHhtbG5zOnY9Imh0dHBzOi8vdmVjdGEuaW8vbmFubyIgd2lkdGg9IjE2Ljk3OTk5OTU0MjIzNjMyOCIgaGVpZ2h0PSIyMCIgdmlld0JveD0iMCAwIDE2Ljk3OTk5OTU0MjIzNjMyOCAyMCI+JiN4YTsJPHN0eWxlIHR5cGU9InRleHQvY3NzIj4mI3hhOwkuc3Qwe2ZpbGw6IzY2OWRmNjt9JiN4YTsJLnN0MXtmaWxsOiM0Mjg1ZjQ7fSYjeGE7CS5zdDJ7ZmlsbDojYWVjYmZhO30mI3hhOwk8L3N0eWxlPiYjeGE7CTxnIGNsYXNzPSJzdDAiPiYjeGE7CQk8cGF0aCBkPSJNOC40OSAxMC4yOUwuMjQgNS4zNSA4LjQ5LjU4bDguMjQgNC42N3pNMS43NiA1LjM2bDYuNzIgNCA2LjcyLTQuMTEtNi43MS0zLjc4eiIvPiYjeGE7CQk8cGF0aCBkPSJNOC40OSAxOS40NEwuMjEgMTMuODkgOC40OSA5LjNsOC4xNSA0LjY0em0tNi44LTUuNWw2LjggNC41NiA2LjctNC41LTYuNy0zLjgyeiIvPiYjeGE7CTwvZz4mI3hhOwk8ZyBjbGFzcz0ic3QxIj4mI3hhOwkJPHBhdGggZD0iTS42MTMgNS41MDJsLjY3NS0uMzcxIDcuNDc3IDEzLjYtLjY3NS4zNzF6Ii8+JiN4YTsJCTxwYXRoIGQ9Ik04LjE5NCAxOC44MjZsNy4zMDEtMTMuNTU5LjY3OC4zNjUtNy4zMDEgMTMuNTU5ek0uNzE2IDEzLjY4N0w4LjA5Ni45MDRsLjY2Ny4zODUtNy4zOCAxMi43ODN6Ii8+JiN4YTsJCTxwYXRoIGQ9Ik04LjE5NCAxLjIxNGwuNjY5LS4zODEgNy40MDUgMTIuOTg3LS42NjkuMzgxeiIvPiYjeGE7CQk8cGF0aCBkPSJNOC4xMy45NmguNzdWMTguOWgtLjc3ek0uNTUgNS40M2guNzd2OC42NkguNTV6bTE0Ljk3LS4wOWguNzdWMTRoLS43N3oiLz4mI3hhOwk8L2c+JiN4YTsJPGcgY2xhc3M9InN0MiI+JiN4YTsJCTxjaXJjbGUgY3g9IjguNTIiIGN5PSIxLjA3IiByPSIxLjA3Ii8+JiN4YTsJCTxjaXJjbGUgY3g9IjE1LjkxIiBjeT0iNS4zNCIgcj0iMS4wNyIvPiYjeGE7CQk8Y2lyY2xlIGN4PSIxLjA3IiBjeT0iNS4zNCIgcj0iMS4wNyIvPiYjeGE7CQk8Y2lyY2xlIGN4PSI4LjUyIiBjeT0iOS45MyIgcj0iMS42OCIvPiYjeGE7CQk8Y2lyY2xlIGN4PSIxNS45MSIgY3k9IjEzLjk0IiByPSIxLjA3Ii8+JiN4YTsJCTxjaXJjbGUgY3g9IjEuMDciIGN5PSIxMy45NCIgcj0iMS4wNyIvPiYjeGE7CQk8Y2lyY2xlIGN4PSI4LjUyIiBjeT0iMTguOTMiIHI9IjEuMDciLz4mI3hhOwkJPHBhdGggZD0iTTguNDkgMTAuMjlMLjI0IDUuMzUgOC40OS41OGw4LjI0IDQuNjd6TTEuNzYgNS4zNmw2LjcyIDQgNi43Mi00LjExLTYuNzEtMy43OHoiLz4mI3hhOwkJPHBhdGggZD0iTTguNDkgMTkuNDRMLjIxIDEzLjg5IDguNDkgOS4zbDguMTUgNC42NHptLTYuOC01LjVsNi44IDQuNTYgNi43LTQuNS02LjctMy44MnoiLz4mI3hhOwkJPHBhdGggZD0iTS42MTMgNS41MDJsLjY3NS0uMzcxIDcuNDc3IDEzLjYtLjY3NS4zNzF6Ii8+JiN4YTsJCTxwYXRoIGQ9Ik04LjE5NCAxOC44MjZsNy4zMDEtMTMuNTU5LjY3OC4zNjUtNy4zMDEgMTMuNTU5ek0uNzE2IDEzLjY4N0w4LjA5Ni45MDRsLjY2Ny4zODUtNy4zOCAxMi43ODN6Ii8+JiN4YTsJCTxwYXRoIGQ9Ik04LjE5NCAxLjIxNGwuNjY5LS4zODEgNy40MDUgMTIuOTg3LS42NjkuMzgxeiIvPiYjeGE7CQk8cGF0aCBkPSJNOC4xMy45NmguNzdWMTguOWgtLjc3ek0uNTUgNS40M2guNzd2OC42NkguNTV6bTE0Ljk3LS4wOWguNzdWMTRoLS43N3oiLz4mI3hhOwk8L2c+JiN4YTsJPGcgY2xhc3M9InN0MCI+JiN4YTsJCTxjaXJjbGUgY3g9IjguNTIiIGN5PSIxLjA3IiByPSIxLjA3Ii8+JiN4YTsJCTxjaXJjbGUgY3g9IjE1LjkxIiBjeT0iNS4zNCIgcj0iMS4wNyIvPiYjeGE7CQk8Y2lyY2xlIGN4PSIxLjA3IiBjeT0iNS4zNCIgcj0iMS4wNyIvPiYjeGE7CQk8Y2lyY2xlIGN4PSI4LjUyIiBjeT0iOS45MyIgcj0iMS42OCIvPiYjeGE7CQk8Y2lyY2xlIGN4PSIxNS45MSIgY3k9IjEzLjk0IiByPSIxLjA3Ii8+JiN4YTsJCTxjaXJjbGUgY3g9IjEuMDciIGN5PSIxMy45NCIgcj0iMS4wNyIvPiYjeGE7CQk8Y2lyY2xlIGN4PSI4LjUyIiBjeT0iMTguOTMiIHI9IjEuMDciLz4mI3hhOwk8L2c+JiN4YTs8L3N2Zz4=;" vertex="1" parent="1">
          <mxGeometry x="690" y="381.76" width="41" height="48.24" as="geometry" />
        </mxCell>
        <mxCell id="Kal2rjh7drkBnL2k9T2B-51" value="" style="image;sketch=0;aspect=fixed;html=1;points=[];align=center;fontSize=12;image=img/lib/mscae/dep/SQL_Server_Stretch_DB.svg;" vertex="1" parent="1">
          <mxGeometry x="193" y="69" width="21" height="21" as="geometry" />
        </mxCell>
      </root>
    </mxGraphModel>
  </diagram>
</mxfile>
